<svg width="480" height="320" viewBox="0 0 480 320" fill="none" xmlns="http://www.w3.org/2000/svg">
  <defs>
    <filter id="csh" x="-20%" y="-20%" width="140%" height="140%">
      <feDropShadow dx="0" dy="14" stdDeviation="20" flood-color="#000" flood-opacity="0.25"/>
    </filter>
  </defs>
  <ellipse cx="240" cy="290" rx="150" ry="20" fill="#000" opacity="0.12"/>
  <g filter="url(#csh)">
    <rect x="150" y="60" width="180" height="200" rx="20" fill="#fff"/>
    <rect x="170" y="84" width="140" height="36" rx="9" fill="#FFF3E8"/>
    <circle cx="190" cy="102" r="6" fill="#FF6B00"/>
    <rect x="206" y="98" width="84" height="8" rx="4" fill="#FFCBA0"/>
    <rect x="170" y="132" width="140" height="36" rx="9" fill="#E6F0FF"/>
    <circle cx="190" cy="150" r="6" fill="#0066FF"/>
    <rect x="206" y="146" width="84" height="8" rx="4" fill="#A9CBFF"/>
    <rect x="170" y="180" width="140" height="36" rx="9" fill="#DCFCE7"/>
    <circle cx="190" cy="198" r="6" fill="#22C55E"/>
    <rect x="206" y="194" width="84" height="8" rx="4" fill="#9DECB9"/>
    <rect x="170" y="228" width="140" height="14" rx="7" fill="#F3F4F6"/>
  </g>
  <circle cx="110" cy="120" r="10" fill="#FF6B00" opacity="0.5"/>
  <circle cx="380" cy="200" r="14" fill="#0066FF" opacity="0.4"/>
  <circle cx="360" cy="90" r="7" fill="#FF6B00" opacity="0.4"/>
</svg>
