<svg viewBox="0 0 512 512" xmlns="http://www.w3.org/2000/svg" fill-rule="evenodd" clip-rule="evenodd" stroke-linejoin="round" stroke-miterlimit="2"><g fill="#fff" fill-rule="nonzero"><path d="M198.348 63.321c.462.88 1.001 1.709 1.72 2.406l77.092 77.095a114.014 114.014 0 00-21.185-2.004c-30.743 0-59.596 11.87-81.33 33.462L50.162 298.68c-.291.316-.567.648-.821.992l-29.698-29.645c-7.7-7.736-7.7-20.283 0-27.998L198.348 63.321zm0-5.427a5.42 5.42 0 00-3.836 1.591L15.808 238.193c-9.805 9.823-9.808 25.82-.01 35.663l29.71 29.654a5.427 5.427 0 003.836 1.59 5.425 5.425 0 004.32-2.148c.133-.177.27-.366.43-.534l124.39-124.299c20.685-20.55 48.209-31.874 77.494-31.874 6.685 0 13.473.642 20.174 1.91.329.062.664.093.996.093 2.98 0 5.43-2.453 5.43-5.43a5.43 5.43 0 00-1.582-3.832L203.905 61.89a4.294 4.294 0 01-.754-1.097 5.438 5.438 0 00-4.803-2.9z"/><path d="M255.987 13.874c5.275 0 10.258 2.072 14.007 5.802l178.75 178.757a7.279 7.279 0 00-1.218.955l-78.195 78.23c6.837-37.063-4.924-75.793-31.505-102.615l-9.926-9.942 17.64-22.385a.952.952 0 00.134-.183c7.352-9.582 5.117-18.026 3.126-22.18-.037-.119-.103-.246-.165-.373-3.311-6.512-10.217-10.713-17.557-10.713-4.893 0-9.423 1.674-13.858 5.181l-22.608 17.353-80.257-80.276a8.01 8.01 0 00-2.472-1.68l30.113-30.129a19.73 19.73 0 0113.991-5.802m0-5.426a25.093 25.093 0 00-17.824 7.386l-30.119 30.131a5.43 5.43 0 00-1.581 3.833 5.444 5.444 0 003.172 4.943c.304.118.58.291.819.515l80.322 80.34a5.436 5.436 0 007.138.469l22.609-17.353c3.522-2.784 6.856-4.059 10.552-4.059 5.303 0 10.27 3.005 12.68 7.669.046.114.096.226.148.338 1.78 3.711 2.785 9.594-2.536 16.53l-.13.18-17.6 22.333a5.448 5.448 0 00.42 7.194l9.927 9.941c25.362 25.589 36.584 62.155 30.01 97.796-.059.326-.09.655-.09.986 0 2.974 2.447 5.424 5.424 5.424a5.427 5.427 0 003.835-1.59l78.196-78.23c.086-.075.18-.143.279-.202a5.427 5.427 0 00.94-8.425L273.83 15.84a25.142 25.142 0 00-17.843-7.392zM142.34 235.076c-6.98 36.9 4.224 74.465 30.696 101.703l10.64 10.642-17.266 21.905c-5.6 7.24-6.708 15.232-3.179 22.565.05.15.155.326.208.478 3.07 5.9 9.43 10.013 16.224 10.403.322.065.657.065.989.065h.1c6.275 0 10.682-2.738 13.83-5.088l22.285-17.126 79.904 79.956c.865.865 1.876 1.526 2.955 2.022l-29.731 29.74a19.662 19.662 0 01-14.007 5.787 19.626 19.626 0 01-13.991-5.786L63.422 313.77c.344-.245.713-.5 1.023-.831l77.894-77.864zm.004-5.426c-1.44 0-2.822.57-3.84 1.587L60.61 309.104l-.028.028c-.074.062-.155.111-.23.167-1.301.924-2.167 2.397-2.3 3.991-.133 1.594.406 3.188 1.538 4.32l178.574 178.577c4.738 4.753 11.073 7.377 17.827 7.377 6.754 0 13.092-2.62 17.846-7.377l29.728-29.741a5.434 5.434 0 001.585-3.836 5.447 5.447 0 00-3.15-4.93 4.768 4.768 0 01-1.39-.93l-79.904-79.957a5.43 5.43 0 00-7.144-.468l-22.286 17.126c-2.73 2.037-5.942 3.963-10.525 3.963h-.248a4.983 4.983 0 00-.527-.059c-4.763-.273-9.414-3.21-11.638-7.327l-.074-.168a5.986 5.986 0 00-.143-.322c-3.324-6.909-.43-13 2.583-16.894l17.238-21.867a5.445 5.445 0 00-.425-7.194l-10.639-10.643c-25.263-25.994-35.924-61.314-29.2-96.856a5.49 5.49 0 00.092-1.008c0-2.977-2.45-5.426-5.426-5.426z"/><path d="M462.798 212.48l29.548 29.548c7.703 7.715 7.703 20.262 0 27.998L313.074 449.264a10.013 10.013 0 00-2.021-2.958l-76.506-76.471c7.052 1.305 14.147 2.003 21.201 2.003 30.752 0 59.63-11.926 81.368-33.515l124.714-124.67c.345-.348.667-.764.968-1.173m0-5.427c-1.718 0-3.34.816-4.36 2.199a6.928 6.928 0 01-.462.583L333.28 334.491c-20.727 20.583-48.26 31.923-77.529 31.923-6.549 0-13.349-.645-20.214-1.913a5.555 5.555 0 00-.986-.09c-2.977 0-5.427 2.45-5.427 5.427 0 1.439.57 2.822 1.59 3.839l76.506 76.47c.357.354.664.82.936 1.405a5.433 5.433 0 004.922 3.145 5.424 5.424 0 003.838-1.594l179.272-179.238c9.811-9.851 9.808-25.849.003-35.67l-29.551-29.55a5.447 5.447 0 00-3.842-1.592zm-131.72-81.708c1.321 0 2.58.803 3.15 1.907.77 1.653.382 3.129-1.367 5.427l-73.2 92.88 2.785 3.805c3.814 5.213 15.771 22.46 38.78 56.012 1.367 2.003 1.83 8.732-1.982 11.616l-114.388 87.842c-1.802 1.349-2.85 1.823-4.106 1.823-.015 0-.034-.074-.05-.074-.015 0-.015.074-.05.074-1.19-.074-2.39-.847-2.861-1.73-.382-.772-1.17-2.403 1.305-5.607l73.036-92.698-41.379-59.537c-2.642-3.73-1.749-9.213 1.954-12.04l114.49-87.942c1.939-1.529 3.03-1.758 3.883-1.758m0-5.427c-2.443 0-4.676.903-7.24 2.918L209.399 210.74c-6.031 4.605-7.417 13.347-3.076 19.48l39.059 56.204-70.548 89.541c-3.058 3.954-3.687 7.765-1.907 11.368l.08.161c1.39 2.59 4.255 4.385 7.3 4.58.114.01.23.013.344.013h.1c2.883 0 5.026-1.16 7.358-2.906l114.441-87.885c6.155-4.658 6.168-14.578 3.157-18.98-22.519-32.842-34.873-50.685-38.88-56.158l-.35-.477 70.645-89.641c1.259-1.653 4.459-5.851 2.028-11.073l-.096-.196a9.066 9.066 0 00-7.976-4.853z"/></g><path d="M255.975 140.818c7.067 0 14.17.68 21.185 2.004L200.066 65.73a9.502 9.502 0 01-1.721-2.406L19.643 242.028c-7.7 7.715-7.7 20.262 0 27.998l29.698 29.645c.254-.347.53-.676.821-.992l124.486-124.396c21.73-21.591 50.584-33.465 81.327-33.465z" fill="#82c8f0" fill-rule="nonzero"/><path d="M294.612 131.76l22.608-17.352c4.435-3.507 8.965-5.181 13.858-5.181 7.34 0 14.246 4.201 17.557 10.713.062.127.128.254.165.372 1.994 4.155 4.226 12.6-3.126 22.18a.952.952 0 01-.133.184L327.9 165.06l9.926 9.942c26.58 26.82 38.342 65.552 31.505 102.614l78.195-78.229c.372-.36.781-.679 1.219-.955L269.994 19.676a19.765 19.765 0 00-14.007-5.802 19.73 19.73 0 00-13.991 5.802l-30.113 30.128c.918.419 1.768.955 2.472 1.68l80.257 80.277zm-77.749 248.866l-22.286 17.126c-3.147 2.35-7.554 5.089-13.83 5.089h-.1c-.331 0-.666 0-.988-.066-6.794-.39-13.154-4.502-16.224-10.403-.056-.152-.161-.329-.208-.478-3.529-7.333-2.419-15.324 3.178-22.565l17.266-21.904-10.639-10.643c-26.472-27.238-37.676-64.799-30.696-101.703l-77.894 77.864c-.31.328-.68.583-1.023.83l178.574 178.578a19.626 19.626 0 0013.991 5.786 19.662 19.662 0 0014.007-5.786l29.731-29.74a10.117 10.117 0 01-2.955-2.023l-79.904-79.962z" fill="#b7e4d2" fill-rule="nonzero"/><path d="M492.35 242.028L462.8 212.48c-.294.416-.62.806-.97 1.175L337.116 338.327c-21.738 21.588-50.613 33.514-81.368 33.514-7.054 0-14.15-.7-21.2-2.003l76.505 76.47c.859.847 1.52 1.874 2.021 2.96l179.272-179.239c7.706-7.74 7.706-20.286.003-28z" fill="#82c8f0" fill-rule="nonzero"/><path d="M332.858 132.679l-73.196 92.88 2.784 3.805c3.814 5.213 15.771 22.46 38.78 56.012 1.367 2.003 1.83 8.732-1.982 11.616l-114.388 87.842c-1.802 1.349-2.85 1.823-4.106 1.823-.015 0-.034-.074-.05-.074-.015 0-.015.074-.05.074-1.19-.074-2.39-.847-2.861-1.73-.382-.772-1.17-2.403 1.305-5.607l73.036-92.698-41.379-59.537c-2.642-3.73-1.749-9.213 1.954-12.04l114.49-87.942c1.939-1.525 3.03-1.755 3.883-1.755 1.321 0 2.58.803 3.15 1.907.77 1.653.382 3.126-1.37 5.424z" fill="#f19d37" fill-rule="nonzero"/></svg>