<svg width="720" height="440" viewBox="0 0 720 440" fill="none" xmlns="http://www.w3.org/2000/svg">
  <defs>
    <filter id="psh" x="-10%" y="-10%" width="120%" height="120%">
      <feDropShadow dx="0" dy="16" stdDeviation="24" flood-color="#0F172A" flood-opacity="0.12"/>
    </filter>
  </defs>
  <g filter="url(#psh)">
    <rect x="20" y="16" width="680" height="408" rx="18" fill="#fff" stroke="#EAECEF"/>
    <rect x="20" y="16" width="680" height="56" rx="18" fill="#111827"/>
    <rect x="20" y="50" width="680" height="22" fill="#111827"/>
    <rect x="44" y="36" width="120" height="16" rx="8" fill="#FF6B00"/>
    <rect x="560" y="38" width="116" height="12" rx="6" fill="#374151"/>

    <!-- file manager rows -->
    <rect x="44" y="96" width="160" height="12" rx="6" fill="#111827"/>
    <rect x="44" y="124" width="632" height="40" rx="10" fill="#F9FAFB"/>
    <rect x="60" y="138" width="18" height="12" rx="3" fill="#0066FF"/>
    <rect x="92" y="139" width="150" height="10" rx="5" fill="#374151"/>
    <rect x="560" y="139" width="100" height="10" rx="5" fill="#D1D5DB"/>

    <rect x="44" y="172" width="632" height="40" rx="10" fill="#fff" stroke="#EAECEF"/>
    <rect x="60" y="186" width="18" height="12" rx="3" fill="#FF6B00"/>
    <rect x="92" y="187" width="190" height="10" rx="5" fill="#374151"/>
    <rect x="560" y="187" width="100" height="10" rx="5" fill="#D1D5DB"/>

    <rect x="44" y="220" width="632" height="40" rx="10" fill="#F9FAFB"/>
    <rect x="60" y="234" width="18" height="12" rx="3" fill="#22C55E"/>
    <rect x="92" y="235" width="130" height="10" rx="5" fill="#374151"/>
    <rect x="560" y="235" width="100" height="10" rx="5" fill="#D1D5DB"/>

    <rect x="44" y="268" width="632" height="40" rx="10" fill="#fff" stroke="#EAECEF"/>
    <rect x="60" y="282" width="18" height="12" rx="3" fill="#0066FF"/>
    <rect x="92" y="283" width="170" height="10" rx="5" fill="#374151"/>
    <rect x="560" y="283" width="100" height="10" rx="5" fill="#D1D5DB"/>

    <!-- action buttons -->
    <rect x="44" y="332" width="120" height="40" rx="10" fill="#FF6B00"/>
    <rect x="72" y="347" width="64" height="10" rx="5" fill="#fff"/>
    <rect x="176" y="332" width="120" height="40" rx="10" fill="#E6F0FF"/>
    <rect x="204" y="347" width="64" height="10" rx="5" fill="#0066FF"/>
  </g>
</svg>
